<?xml version="1.0" encoding="UTF-8"?>
<svg width="127px" height="117px" viewBox="0 0 127 117" version="1.1" xmlns="http://www.w3.org/2000/svg" xmlns:xlink="http://www.w3.org/1999/xlink">
    <title>ai knowldge white</title>
    <g id="Page-1" stroke="none" stroke-width="1" fill="none" fill-rule="evenodd">
        <path d="M127,110 L10.5,110 L10.5,116.5 L0.5,116.5 L0.5,93.5 L10.5,93.5 L10.5,100 L117,100 L117,79 L10.499,79 L10.5,85.5 L0.5,85.5 L0.5,62.5 L10.5,62.5 L10.5,69 L117,69 L117,48 L10.5,48 L10.5,54.5 L0.5,54.5 L0.5,31.5 L10.5,31.5 L10.5,38 L117,38 L117,17 L10.5,17 L10.5,23.5 L0.5,23.5 L0.5,0.5 L10.5,0.5 L10.5,7 L127,7 L127,110 Z" id="ai-knowldge-white" fill="#EDEBEB"></path>
    </g>
</svg>